<svg fill="none" height="48" viewBox="0 0 47 48" width="47" xmlns="http://www.w3.org/2000/svg"><path d="m24.9706 7.03309c-3.1242-3.1242-8.1896-3.1242-11.3137 0l-11.31375 11.31371c-3.124199 3.1242-3.124199 8.1895 0 11.3137l11.31375 11.3137c3.1241 3.1242 8.1895 3.1242 11.3137 0l5.3982-5.3983c-4.4939-1.7337-7.682-6.0944-7.682-11.1997 0-5.3087 3.4472-9.8123 8.2254-11.3943-.0935-.0982-.1884-.1955-.2848-.292z" fill="#875bf7"/><path d="m30.3691 35.5798c1.3398.5168 2.7955.8001 4.3174.8001 6.6274 0 12-5.3726 12-12s-5.3726-12-12-12c-1.3185 0-2.5873.2126-3.774.6055 5.9623 6.2681 5.8675 16.1836-.2846 22.3356z" fill="#ee46bc"/></svg>